<svg width="1920" height="3242" viewBox="0 0 1920 3242" fill="none" xmlns="http://www.w3.org/2000/svg">
<g clip-path="url(#clip0_0_22)">
<rect width="1920" height="3242" fill="#08090B"/>
<rect x="0.244054" y="0.429525" width="55" height="55" rx="5.5" transform="matrix(1 0 -0.511893 0.859049 825.348 87.0605)" stroke="#192937"/>
<rect x="0.244054" y="0.429525" width="55" height="55" rx="5.5" transform="matrix(1 0 -0.511893 0.859049 880.348 87.0605)" stroke="#192937"/>
<rect x="0.244054" y="0.429525" width="55" height="55" rx="5.5" transform="matrix(1 0 -0.511893 0.859049 935.348 87.0605)" stroke="#192937"/>
<rect x="0.244054" y="0.429525" width="55" height="55" rx="5.5" transform="matrix(1 0 -0.511893 0.859049 990.348 87.0605)" stroke="#192937"/>
<rect x="0.244054" y="0.429525" width="55" height="55" rx="5.5" transform="matrix(1 0 -0.511893 0.859049 1045.35 87.0605)" stroke="#192937"/>
<rect x="0.244054" y="0.429525" width="55" height="55" rx="5.5" transform="matrix(1 0 -0.511893 0.859049 1100.35 87.0605)" stroke="#192937"/>
<rect x="0.244054" y="0.429525" width="55" height="55" rx="5.5" transform="matrix(1 0 -0.511893 0.859049 1155.35 87.0605)" stroke="#192937"/>
<rect x="0.244054" y="0.429525" width="55" height="55" rx="5.5" transform="matrix(1 0 -0.511893 0.859049 1210.35 87.0605)" stroke="#192937"/>
<rect x="0.244054" y="0.429525" width="55" height="55" rx="5.5" transform="matrix(1 0 -0.511893 0.859049 1265.35 87.0605)" stroke="#192937"/>
<rect x="0.244054" y="0.429525" width="55" height="55" rx="5.5" transform="matrix(1 0 -0.511893 0.859049 1320.35 87.0605)" stroke="#192937"/>
<rect x="0.244054" y="0.429525" width="55" height="55" rx="5.5" transform="matrix(1 0 -0.511893 0.859049 797.194 134.308)" stroke="#192937"/>
<rect x="0.244054" y="0.429525" width="55" height="55" rx="5.5" transform="matrix(1 0 -0.511893 0.859049 852.194 134.308)" stroke="#192937"/>
<rect x="0.244054" y="0.429525" width="55" height="55" rx="5.5" transform="matrix(1 0 -0.511893 0.859049 907.194 134.308)" stroke="#192937"/>
<rect x="0.244054" y="0.429525" width="55" height="55" rx="5.5" transform="matrix(1 0 -0.511893 0.859049 962.194 134.308)" stroke="#192937"/>
<rect x="0.244054" y="0.429525" width="55" height="55" rx="5.5" transform="matrix(1 0 -0.511893 0.859049 1017.19 134.308)" stroke="#192937"/>
<rect x="0.244054" y="0.429525" width="55" height="55" rx="5.5" transform="matrix(1 0 -0.511893 0.859049 1072.19 134.308)" stroke="#192937"/>
<rect x="0.244054" y="0.429525" width="55" height="55" rx="5.5" transform="matrix(1 0 -0.511893 0.859049 1127.19 134.308)" stroke="#192937"/>
<rect x="0.244054" y="0.429525" width="55" height="55" rx="5.5" transform="matrix(1 0 -0.511893 0.859049 1182.19 134.308)" stroke="#192937"/>
<rect x="0.244054" y="0.429525" width="55" height="55" rx="5.5" transform="matrix(1 0 -0.511893 0.859049 1237.19 134.308)" stroke="#192937"/>
<rect x="0.244054" y="0.429525" width="55" height="55" rx="5.5" transform="matrix(1 0 -0.511893 0.859049 1292.19 134.308)" stroke="#192937"/>
<rect x="0.244054" y="0.429525" width="55" height="55" rx="5.5" transform="matrix(1 0 -0.511893 0.859049 769.04 181.556)" stroke="#192937"/>
<rect x="0.244054" y="0.429525" width="55" height="55" rx="5.5" transform="matrix(1 0 -0.511893 0.859049 824.04 181.556)" stroke="#192937"/>
<rect x="0.244054" y="0.429525" width="55" height="55" rx="5.5" transform="matrix(1 0 -0.511893 0.859049 879.04 181.556)" stroke="#192937"/>
<rect x="0.244054" y="0.429525" width="55" height="55" rx="5.5" transform="matrix(1 0 -0.511893 0.859049 934.04 181.556)" stroke="#192937"/>
<rect x="0.244054" y="0.429525" width="55" height="55" rx="5.5" transform="matrix(1 0 -0.511893 0.859049 989.04 181.556)" stroke="#192937"/>
<rect x="0.244054" y="0.429525" width="55" height="55" rx="5.5" transform="matrix(1 0 -0.511893 0.859049 1044.04 181.556)" stroke="#192937"/>
<rect x="0.244054" y="0.429525" width="55" height="55" rx="5.5" transform="matrix(1 0 -0.511893 0.859049 1099.04 181.556)" stroke="#192937"/>
<rect x="0.244054" y="0.429525" width="55" height="55" rx="5.5" transform="matrix(1 0 -0.511893 0.859049 1154.04 181.556)" stroke="#192937"/>
<rect x="0.244054" y="0.429525" width="55" height="55" rx="5.5" transform="matrix(1 0 -0.511893 0.859049 1209.04 181.556)" stroke="#192937"/>
<rect x="0.244054" y="0.429525" width="55" height="55" rx="5.5" transform="matrix(1 0 -0.511893 0.859049 1264.04 181.556)" stroke="#192937"/>
<rect x="0.244054" y="0.429525" width="55" height="55" rx="5.5" transform="matrix(1 0 -0.511893 0.859049 740.886 228.804)" stroke="#192937"/>
<rect x="0.244054" y="0.429525" width="55" height="55" rx="5.5" transform="matrix(1 0 -0.511893 0.859049 795.886 228.804)" stroke="#192937"/>
<rect x="0.244054" y="0.429525" width="55" height="55" rx="5.5" transform="matrix(1 0 -0.511893 0.859049 850.886 228.804)" stroke="#192937"/>
<rect x="0.244054" y="0.429525" width="55" height="55" rx="5.5" transform="matrix(1 0 -0.511893 0.859049 905.886 228.804)" stroke="#192937"/>
<rect x="0.244054" y="0.429525" width="55" height="55" rx="5.5" transform="matrix(1 0 -0.511893 0.859049 960.886 228.804)" stroke="#192937"/>
<rect x="0.244054" y="0.429525" width="55" height="55" rx="5.5" transform="matrix(1 0 -0.511893 0.859049 1015.89 228.804)" stroke="#192937"/>
<rect x="0.244054" y="0.429525" width="55" height="55" rx="5.5" transform="matrix(1 0 -0.511893 0.859049 1070.89 228.804)" stroke="#192937"/>
<rect x="0.244054" y="0.429525" width="55" height="55" rx="5.5" transform="matrix(1 0 -0.511893 0.859049 1125.89 228.804)" stroke="#192937"/>
<rect x="0.244054" y="0.429525" width="55" height="55" rx="5.5" transform="matrix(1 0 -0.511893 0.859049 1180.89 228.804)" stroke="#192937"/>
<rect x="0.244054" y="0.429525" width="55" height="55" rx="5.5" transform="matrix(1 0 -0.511893 0.859049 1235.89 228.804)" stroke="#192937"/>
<rect x="0.244054" y="0.429525" width="55" height="55" rx="5.5" transform="matrix(1 0 -0.511893 0.859049 1282.35 317.061)" stroke="#192937"/>
<rect x="0.244054" y="0.429525" width="55" height="55" rx="5.5" transform="matrix(1 0 -0.511893 0.859049 1337.35 317.061)" stroke="#192937"/>
<rect x="0.244054" y="0.429525" width="55" height="55" rx="5.5" transform="matrix(1 0 -0.511893 0.859049 1392.35 317.061)" stroke="#192937"/>
<rect x="0.244054" y="0.429525" width="55" height="55" rx="5.5" transform="matrix(1 0 -0.511893 0.859049 1447.35 317.061)" stroke="#192937"/>
<rect x="0.244054" y="0.429525" width="55" height="55" rx="5.5" transform="matrix(1 0 -0.511893 0.859049 1502.35 317.061)" stroke="#192937"/>
<rect x="0.244054" y="0.429525" width="55" height="55" rx="5.5" transform="matrix(1 0 -0.511893 0.859049 1557.35 317.061)" stroke="#192937"/>
<rect x="0.244054" y="0.429525" width="55" height="55" rx="5.5" transform="matrix(1 0 -0.511893 0.859049 1612.35 317.061)" stroke="#192937"/>
<rect x="0.244054" y="0.429525" width="55" height="55" rx="5.5" transform="matrix(1 0 -0.511893 0.859049 1667.35 317.061)" stroke="#192937"/>
<rect x="0.244054" y="0.429525" width="55" height="55" rx="5.5" transform="matrix(1 0 -0.511893 0.859049 1722.35 317.061)" stroke="#192937"/>
<rect x="0.244054" y="0.429525" width="55" height="55" rx="5.5" transform="matrix(1 0 -0.511893 0.859049 1777.35 317.061)" stroke="#192937"/>
<rect x="0.244054" y="0.429525" width="55" height="55" rx="5.5" transform="matrix(1 0 -0.511893 0.859049 1254.19 364.308)" stroke="#192937"/>
<rect x="0.244054" y="0.429525" width="55" height="55" rx="5.5" transform="matrix(1 0 -0.511893 0.859049 1309.19 364.308)" stroke="#192937"/>
<rect x="0.244054" y="0.429525" width="55" height="55" rx="5.5" transform="matrix(1 0 -0.511893 0.859049 1364.19 364.308)" stroke="#192937"/>
<rect x="0.244054" y="0.429525" width="55" height="55" rx="5.5" transform="matrix(1 0 -0.511893 0.859049 1419.19 364.308)" stroke="#192937"/>
<rect x="0.244054" y="0.429525" width="55" height="55" rx="5.5" transform="matrix(1 0 -0.511893 0.859049 1474.19 364.308)" stroke="#192937"/>
<rect x="0.244054" y="0.429525" width="55" height="55" rx="5.5" transform="matrix(1 0 -0.511893 0.859049 1529.19 364.308)" stroke="#192937"/>
<rect x="0.244054" y="0.429525" width="55" height="55" rx="5.5" transform="matrix(1 0 -0.511893 0.859049 1584.19 364.308)" stroke="#192937"/>
<rect x="0.244054" y="0.429525" width="55" height="55" rx="5.5" transform="matrix(1 0 -0.511893 0.859049 1639.19 364.308)" stroke="#192937"/>
<rect x="0.244054" y="0.429525" width="55" height="55" rx="5.5" transform="matrix(1 0 -0.511893 0.859049 1694.19 364.308)" stroke="#192937"/>
<rect x="0.244054" y="0.429525" width="55" height="55" rx="5.5" transform="matrix(1 0 -0.511893 0.859049 1749.19 364.308)" stroke="#192937"/>
<rect x="0.244054" y="0.429525" width="55" height="55" rx="5.5" transform="matrix(1 0 -0.511893 0.859049 1226.04 411.556)" stroke="#192937"/>
<rect x="0.244054" y="0.429525" width="55" height="55" rx="5.5" transform="matrix(1 0 -0.511893 0.859049 1281.04 411.556)" stroke="#192937"/>
<rect x="0.244054" y="0.429525" width="55" height="55" rx="5.5" transform="matrix(1 0 -0.511893 0.859049 1336.04 411.556)" stroke="#192937"/>
<rect x="0.244054" y="0.429525" width="55" height="55" rx="5.5" transform="matrix(1 0 -0.511893 0.859049 1391.04 411.556)" stroke="#192937"/>
<rect x="0.244054" y="0.429525" width="55" height="55" rx="5.5" transform="matrix(1 0 -0.511893 0.859049 1446.04 411.556)" stroke="#192937"/>
<rect x="0.244054" y="0.429525" width="55" height="55" rx="5.5" transform="matrix(1 0 -0.511893 0.859049 1501.04 411.556)" stroke="#192937"/>
<rect x="0.244054" y="0.429525" width="55" height="55" rx="5.5" transform="matrix(1 0 -0.511893 0.859049 1556.04 411.556)" stroke="#192937"/>
<rect x="0.244054" y="0.429525" width="55" height="55" rx="5.5" transform="matrix(1 0 -0.511893 0.859049 1611.04 411.556)" stroke="#192937"/>
<rect x="0.244054" y="0.429525" width="55" height="55" rx="5.5" transform="matrix(1 0 -0.511893 0.859049 1666.04 411.556)" stroke="#192937"/>
<rect x="0.244054" y="0.429525" width="55" height="55" rx="5.5" transform="matrix(1 0 -0.511893 0.859049 1721.04 411.556)" stroke="#192937"/>
<rect x="0.244054" y="0.429525" width="55" height="55" rx="5.5" transform="matrix(1 0 -0.511893 0.859049 1197.89 458.804)" stroke="#192937"/>
<rect x="0.244054" y="0.429525" width="55" height="55" rx="5.5" transform="matrix(1 0 -0.511893 0.859049 1252.89 458.804)" stroke="#192937"/>
<rect x="0.244054" y="0.429525" width="55" height="55" rx="5.5" transform="matrix(1 0 -0.511893 0.859049 1307.89 458.804)" stroke="#192937"/>
<rect x="0.244054" y="0.429525" width="55" height="55" rx="5.5" transform="matrix(1 0 -0.511893 0.859049 1362.89 458.804)" stroke="#192937"/>
<rect x="0.244054" y="0.429525" width="55" height="55" rx="5.5" transform="matrix(1 0 -0.511893 0.859049 1417.89 458.804)" stroke="#192937"/>
<rect x="0.244054" y="0.429525" width="55" height="55" rx="5.5" transform="matrix(1 0 -0.511893 0.859049 1472.89 458.804)" stroke="#192937"/>
<rect x="0.244054" y="0.429525" width="55" height="55" rx="5.5" transform="matrix(1 0 -0.511893 0.859049 1527.89 458.804)" stroke="#192937"/>
<rect x="0.244054" y="0.429525" width="55" height="55" rx="5.5" transform="matrix(1 0 -0.511893 0.859049 1582.89 458.804)" stroke="#192937"/>
<rect x="0.244054" y="0.429525" width="55" height="55" rx="5.5" transform="matrix(1 0 -0.511893 0.859049 1637.89 458.804)" stroke="#192937"/>
<rect x="0.244054" y="0.429525" width="55" height="55" rx="5.5" transform="matrix(1 0 -0.511893 0.859049 1692.89 458.804)" stroke="#192937"/>
<g filter="url(#filter0_f_0_22)">
<path d="M1457.13 1517.95C1503.72 1457.03 1518.98 1390.09 1491.2 1368.44C1463.43 1346.79 1403.15 1378.63 1356.56 1439.55C1309.96 1500.47 1294.71 1567.41 1322.48 1589.06C1350.26 1610.71 1410.54 1578.88 1457.13 1517.95Z" fill="url(#paint0_linear_0_22)" fill-opacity="0.31"/>
</g>
<g filter="url(#filter1_f_0_22)">
<ellipse cx="1370" cy="160" rx="390" ry="90" fill="#1EA0FF" fill-opacity="0.32"/>
</g>
<g filter="url(#filter2_f_0_22)">
<ellipse cx="390" cy="471" rx="390" ry="90" fill="#1E78FF" fill-opacity="0.24"/>
</g>
<g filter="url(#filter3_f_0_22)">
<path d="M1342.76 2965.27L1127.28 3114.33L373 2050.06L588.472 1901L1342.76 2965.27Z" fill="url(#paint1_radial_0_22)" fill-opacity="0.72"/>
</g>
<g filter="url(#filter4_f_0_22)">
<ellipse cx="344.385" cy="120" rx="344.385" ry="120" transform="matrix(-1 0 0 1 1494 2335.68)" fill="#39B8FF" fill-opacity="0.2"/>
</g>
<g filter="url(#filter5_f_0_22)">
<ellipse cx="398.546" cy="120" rx="398.546" ry="120" transform="matrix(-1 0 0 1 1232.09 2192)" fill="#0076E3" fill-opacity="0.24"/>
</g>
<g filter="url(#filter6_f_0_22)">
<ellipse cx="184" cy="1306" rx="184" ry="66" fill="#39B8FF" fill-opacity="0.32"/>
</g>
<rect width="1920" height="410" transform="translate(0 2832)" fill="#08090B"/>
</g>
<defs>
<filter id="filter0_f_0_22" x="1201.62" y="1254.65" width="410.455" height="448.202" filterUnits="userSpaceOnUse" color-interpolation-filters="sRGB">
<feFlood flood-opacity="0" result="BackgroundImageFix"/>
<feBlend mode="normal" in="SourceGraphic" in2="BackgroundImageFix" result="shape"/>
<feGaussianBlur stdDeviation="53.5" result="effect1_foregroundBlur_0_22"/>
</filter>
<filter id="filter1_f_0_22" x="580" y="-330" width="1580" height="980" filterUnits="userSpaceOnUse" color-interpolation-filters="sRGB">
<feFlood flood-opacity="0" result="BackgroundImageFix"/>
<feBlend mode="normal" in="SourceGraphic" in2="BackgroundImageFix" result="shape"/>
<feGaussianBlur stdDeviation="200" result="effect1_foregroundBlur_0_22"/>
</filter>
<filter id="filter2_f_0_22" x="-400" y="-19" width="1580" height="980" filterUnits="userSpaceOnUse" color-interpolation-filters="sRGB">
<feFlood flood-opacity="0" result="BackgroundImageFix"/>
<feBlend mode="normal" in="SourceGraphic" in2="BackgroundImageFix" result="shape"/>
<feGaussianBlur stdDeviation="200" result="effect1_foregroundBlur_0_22"/>
</filter>
<filter id="filter3_f_0_22" x="349" y="1877" width="1017.76" height="1261.33" filterUnits="userSpaceOnUse" color-interpolation-filters="sRGB">
<feFlood flood-opacity="0" result="BackgroundImageFix"/>
<feBlend mode="normal" in="SourceGraphic" in2="BackgroundImageFix" result="shape"/>
<feGaussianBlur stdDeviation="12" result="effect1_foregroundBlur_0_22"/>
</filter>
<filter id="filter4_f_0_22" x="405.231" y="1935.68" width="1488.77" height="1040" filterUnits="userSpaceOnUse" color-interpolation-filters="sRGB">
<feFlood flood-opacity="0" result="BackgroundImageFix"/>
<feBlend mode="normal" in="SourceGraphic" in2="BackgroundImageFix" result="shape"/>
<feGaussianBlur stdDeviation="200" result="effect1_foregroundBlur_0_22"/>
</filter>
<filter id="filter5_f_0_22" x="34.9999" y="1792" width="1597.09" height="1040" filterUnits="userSpaceOnUse" color-interpolation-filters="sRGB">
<feFlood flood-opacity="0" result="BackgroundImageFix"/>
<feBlend mode="normal" in="SourceGraphic" in2="BackgroundImageFix" result="shape"/>
<feGaussianBlur stdDeviation="200" result="effect1_foregroundBlur_0_22"/>
</filter>
<filter id="filter6_f_0_22" x="-400" y="840" width="1168" height="932" filterUnits="userSpaceOnUse" color-interpolation-filters="sRGB">
<feFlood flood-opacity="0" result="BackgroundImageFix"/>
<feBlend mode="normal" in="SourceGraphic" in2="BackgroundImageFix" result="shape"/>
<feGaussianBlur stdDeviation="200" result="effect1_foregroundBlur_0_22"/>
</filter>
<linearGradient id="paint0_linear_0_22" x1="1352.5" y1="1440.22" x2="1437.09" y2="1504.05" gradientUnits="userSpaceOnUse">
<stop stop-color="#00E6F4"/>
<stop offset="1" stop-color="#00E6F4" stop-opacity="0"/>
</linearGradient>
<radialGradient id="paint1_radial_0_22" cx="0" cy="0" r="1" gradientUnits="userSpaceOnUse" gradientTransform="translate(1066.33 2302.83) rotate(140.161) scale(397.932 397.062)">
<stop stop-color="#00BAF4"/>
<stop offset="1" stop-color="#12131A" stop-opacity="0"/>
</radialGradient>
<clipPath id="clip0_0_22">
<rect width="1920" height="3242" fill="white"/>
</clipPath>
</defs>
</svg>
