<svg width="22" height="22" viewBox="0 0 22 22" fill="none" xmlns="http://www.w3.org/2000/svg">
<g id="mail-02">
<path id="Icon" d="M19.7083 16.5L13.6191 11M8.38096 11L2.29171 16.5M1.83334 6.41669L9.31785 11.6558C9.92393 12.0801 10.227 12.2922 10.5566 12.3744C10.8477 12.447 11.1523 12.447 11.4434 12.3744C11.7731 12.2922 12.0761 12.0801 12.6822 11.6558L20.1667 6.41669M6.23334 18.3334H15.7667C17.3068 18.3334 18.0769 18.3334 18.6651 18.0336C19.1826 17.77 19.6033 17.3493 19.8669 16.8318C20.1667 16.2436 20.1667 15.4735 20.1667 13.9334V8.06669C20.1667 6.52654 20.1667 5.75647 19.8669 5.16821C19.6033 4.65077 19.1826 4.23007 18.6651 3.96642C18.0769 3.66669 17.3068 3.66669 15.7667 3.66669H6.23334C4.6932 3.66669 3.92313 3.66669 3.33487 3.96642C2.81742 4.23007 2.39673 4.65077 2.13308 5.16821C1.83334 5.75647 1.83334 6.52654 1.83334 8.06669V13.9334C1.83334 15.4735 1.83334 16.2436 2.13308 16.8318C2.39673 17.3493 2.81742 17.77 3.33487 18.0336C3.92313 18.3334 4.6932 18.3334 6.23334 18.3334Z" stroke="#B2BEE2" stroke-width="1.4" stroke-linecap="round" stroke-linejoin="round"/>
</g>
</svg>
