<svg width="30" height="30" viewBox="0 0 30 30" fill="none" xmlns="http://www.w3.org/2000/svg">
<g id="Group 72">
<mask id="mask0_0_435" style="mask-type:alpha" maskUnits="userSpaceOnUse" x="0" y="0" width="30" height="30">
<circle id="Ellipse 5" cx="14.6154" cy="14.6154" r="14.6154" fill="#D9D9D9"/>
</mask>
<g mask="url(#mask0_0_435)">
<path id="Vector" d="M14.6154 -4.61536C3.99439 -4.61536 -4.61539 3.99442 -4.61539 14.6154C-4.61539 25.2364 3.99439 33.8462 14.6154 33.8462C25.2364 33.8462 33.8462 25.2364 33.8462 14.6154C33.8462 3.99442 25.2364 -4.61536 14.6154 -4.61536ZM22.4379 11.1378C22.4459 11.3021 22.4479 11.4664 22.4479 11.6266C22.4479 16.6346 18.6398 22.4059 11.6727 22.4059C9.61397 22.4093 7.59809 21.818 5.86738 20.7032C6.16186 20.7392 6.46434 20.7532 6.77083 20.7532C8.54567 20.7532 10.1783 20.1503 11.4744 19.1326C10.6845 19.1171 9.91921 18.8556 9.28508 18.3845C8.65094 17.9134 8.17958 17.2562 7.9367 16.5044C8.50391 16.6123 9.08824 16.5897 9.64543 16.4383C8.78816 16.265 8.01722 15.8005 7.46335 15.1236C6.90949 14.4466 6.60678 13.599 6.60657 12.7244V12.6783C7.11738 12.9608 7.70232 13.133 8.32331 13.1531C7.51963 12.6181 6.95069 11.7962 6.73286 10.8557C6.51503 9.91508 6.66476 8.92682 7.15144 8.09298C8.10287 9.26285 9.28938 10.2199 10.6341 10.9021C11.9789 11.5843 13.452 11.9765 14.9579 12.0533C14.7665 11.2406 14.8489 10.3875 15.1923 9.62644C15.5358 8.86542 16.121 8.23919 16.8571 7.84511C17.5932 7.45103 18.4388 7.31117 19.2626 7.44729C20.0864 7.5834 20.8421 7.98786 21.4123 8.59778C22.26 8.43007 23.0729 8.11913 23.8161 7.67831C23.5336 8.55599 22.9421 9.30126 22.1514 9.77567C22.9023 9.68523 23.6356 9.48336 24.3269 9.17671C23.8191 9.93772 23.1794 10.6019 22.4379 11.1378Z" fill="#3C4867"/>
</g>
</g>
</svg>
